<svg xmlns="http://www.w3.org/2000/svg" viewBox="0 0 437.17 136.68"><title>logo</title><g id="Layer_2" data-name="Layer 2"><g id="Layer_1-2" data-name="Layer 1"><polygon points="40.81 33 47.35 33 59.23 10.68 49.67 10.68 40.81 33"/><polygon points="0.01 10.68 0.01 73.77 57.04 73.77 57.04 66.88 8.84 66.88 8.84 10.68 0.01 10.68"/><path d="M106.37,71.26C88.66,71.26,74.08,57,74.08,39.9s13.89-32,33-32a32,32,0,0,1,32.29,32c0,17.14-15.27,31.36-33,31.36M106.67,0c-25.58,0-43,18-43,39.88,0,23,19.27,39.22,43,39.22s43-16,43-39.22C149.68,18,132,0,106.67,0"/><path d="M199.67,39.85H170.21V18.15H200.7c7,0,11,3.28,12.39,7.44a11.75,11.75,0,0,1-1.22,9.15c-2.54,4.22-7.38,5.11-12.2,5.11m7.56,7.54c14.46-3.86,15.86-14.61,15.79-18.45-.87-11.28-8.46-18.26-22.11-18.26H161.15V73.77h9.06V47.31H196.1l19.05,26.46h11.42S212.87,56,207.23,47.39"/><polygon points="237.84 73.77 294.25 73.77 294.25 66.88 247.51 66.88 247.51 44.83 282.62 44.83 282.62 37.86 247.51 37.86 247.51 17.55 294.25 17.55 294.25 10.68 237.84 10.68 237.84 73.77"/><polygon points="267.16 0.48 259.52 9.06 283.5 0.48 267.16 0.48"/><path d="M321.84,49.54,337,19.4l15.29,30.14Zm9-38.86L298.73,73.77h10.84l8.21-16.33h38.47l8.28,16.33h10.73l-32.1-63.09Z"/><polygon points="380.14 10.68 380.14 73.77 437.17 73.77 437.17 66.88 388.96 66.88 388.96 10.68 380.14 10.68"/><polygon points="2.07 107.2 2.07 121.44 17.19 121.44 17.19 123.37 2.07 123.37 2.07 136.29 0 136.29 0 105.3 18.91 105.3 18.91 107.2 2.07 107.2"/><rect x="25.03" y="105.3" width="2.07" height="30.98"/><polygon points="61.69 105.3 61.69 136.55 60.28 136.55 38.64 109 38.64 136.29 36.57 136.29 36.57 105.04 37.98 105.04 59.62 132.58 59.62 105.3 61.69 105.3"/><path d="M73.05,126.94H88.79l-7.85-18.73Zm16.53,1.9H72.26l-3.13,7.45h-2.2l13.13-31h1.81l13.09,31H92.71Z"/><polygon points="125.32 105.3 125.32 136.55 123.91 136.55 102.27 109 102.27 136.29 100.2 136.29 100.2 105.04 101.61 105.04 123.25 132.58 123.25 105.3 125.32 105.3"/><path d="M132.41,120.86c0-9.34,6.7-16,16.17-16a16.3,16.3,0,0,1,9.74,2.78l-1.06,1.67c-.88-.75-3.7-2.51-8.46-2.51-8.41,0-14.28,5.64-14.28,14s5.64,13.92,14.28,13.92a14.77,14.77,0,0,0,8.55-2.33l1,1.68c-1.14.79-4.27,2.59-9.74,2.59-9.69,0-16.17-6.61-16.17-15.82"/><polygon points="166.56 107.2 166.56 119.54 181.81 119.54 181.81 121.48 166.56 121.48 166.56 134.39 183.97 134.39 183.97 136.29 164.49 136.29 164.49 105.3 183.97 105.3 183.97 107.2 166.56 107.2"/></g></g></svg>