<svg xmlns="http://www.w3.org/2000/svg" viewBox="0 0 459.02 143.51"><defs><style>.cls-1{fill:#fff;}</style></defs><g id="Layer_2" data-name="Layer 2"><g id="Layer_1-2" data-name="Layer 1"><polygon class="cls-1" points="42.85 34.65 49.72 34.65 62.19 11.21 52.16 11.21 42.85 34.65"/><polygon class="cls-1" points="0.01 11.21 0.01 77.46 59.89 77.46 59.89 70.23 9.28 70.23 9.28 11.21 0.01 11.21"/><path class="cls-1" d="M111.68,74.82c-18.58,0-33.9-14.93-33.9-32.93S92.37,8.27,112.4,8.27a33.62,33.62,0,0,1,33.9,33.62c0,18-16,32.93-34.62,32.93M112,0C85.14,0,66.82,18.94,66.82,41.87,66.82,66,87.06,83.05,112,83.05s45.16-16.8,45.16-41.18C157.16,18.94,138.62,0,112,0"/><path class="cls-1" d="M209.65,41.84H178.72V19.06h32c7.37,0,11.52,3.44,13,7.81a12.33,12.33,0,0,1-1.28,9.61c-2.67,4.42-7.76,5.36-12.81,5.36m7.94,7.92c15.17-4,16.65-15.34,16.57-19.38-.91-11.83-8.88-19.16-23.21-19.16H169.2V77.46h9.52V49.67H205.9l20,27.79h12s-14.38-18.7-20.3-27.7"/><polygon class="cls-1" points="249.73 77.46 308.96 77.46 308.96 70.22 259.88 70.22 259.88 47.07 296.75 47.07 296.75 39.75 259.88 39.75 259.88 18.43 308.96 18.43 308.96 11.21 249.73 11.21 249.73 77.46"/><polygon class="cls-1" points="280.51 0.51 272.49 9.52 297.67 0.51 280.51 0.51"/><path class="cls-1" d="M337.92,52l15.87-31.64L369.85,52Zm9.42-40.8L313.66,77.46H325l8.62-17.15h40.4l8.69,17.15H394L360.31,11.21Z"/><polygon class="cls-1" points="399.14 11.21 399.14 77.46 459.02 77.46 459.02 70.23 408.39 70.23 408.39 11.21 399.14 11.21"/><polygon class="cls-1" points="2.17 112.56 2.17 127.5 18.05 127.5 18.05 129.54 2.17 129.54 2.17 143.1 0 143.1 0 110.57 19.85 110.57 19.85 112.56 2.17 112.56"/><rect class="cls-1" x="26.28" y="110.57" width="2.17" height="32.53"/><polygon class="cls-1" points="64.78 110.57 64.78 143.38 63.3 143.38 40.57 114.45 40.57 143.1 38.4 143.1 38.4 110.29 39.88 110.29 62.6 139.21 62.6 110.57 64.78 110.57"/><path class="cls-1" d="M76.71,133.29H93.23L85,113.62Zm17.35,2H75.87l-3.28,7.82H70.27l13.79-32.53H86L99.7,143.1H97.35Z"/><polygon class="cls-1" points="131.58 110.57 131.58 143.38 130.1 143.38 107.38 114.45 107.38 143.1 105.2 143.1 105.2 110.29 106.69 110.29 129.41 139.21 129.41 110.57 131.58 110.57"/><path class="cls-1" d="M139,126.9c0-9.81,7-16.75,17-16.75,5.74,0,9.07,2.08,10.22,2.92l-1.11,1.75c-.92-.78-3.88-2.63-8.88-2.63-8.84,0-15,5.92-15,14.66s5.93,14.63,15,14.63a15.61,15.61,0,0,0,9-2.45l1,1.76c-1.2.83-4.48,2.72-10.22,2.72-10.18,0-17-6.94-17-16.61"/><polygon class="cls-1" points="174.88 112.56 174.88 125.51 190.89 125.51 190.89 127.55 174.88 127.55 174.88 141.11 193.16 141.11 193.16 143.1 172.71 143.1 172.71 110.57 193.16 110.57 193.16 112.56 174.88 112.56"/></g></g></svg>